<?xml version="1.0" standalone="no"?>
<!DOCTYPE svg PUBLIC "-//W3C//DTD SVG 20010904//EN"
 "http://www.w3.org/TR/2001/REC-SVG-20010904/DTD/svg10.dtd">
<svg version="1.0" xmlns="http://www.w3.org/2000/svg"
 width="500.000000pt" height="500.000000pt" viewBox="0 0 500.000000 500.000000"
 preserveAspectRatio="xMidYMid meet">

<g transform="translate(0.000000,500.000000) scale(0.100000,-0.100000)"
fill="#000000" stroke="none">
<path d="M1395 3115 c-240 -44 -394 -181 -395 -350 0 -42 6 -70 20 -92 l19
-32 -32 -62 c-27 -52 -32 -73 -32 -130 0 -73 13 -97 69 -126 44 -23 175 -19
261 8 138 42 249 113 412 265 89 82 94 85 135 82 l43 -3 0 -133 c0 -111 2
-132 15 -132 13 0 15 20 12 130 -3 125 -2 130 17 130 12 0 21 5 21 10 0 6 -30
10 -70 10 -38 0 -70 3 -70 8 0 4 73 83 163 175 l162 169 119 -21 c65 -12 142
-20 170 -19 46 1 47 2 11 5 -51 4 -246 44 -264 53 -10 5 -1 15 30 34 57 34 41
34 -22 -1 l-50 -27 -92 17 c-257 48 -503 60 -652 32z m395 -26 c130 -12 311
-37 319 -45 3 -2 -13 -19 -35 -36 -21 -17 -104 -96 -184 -175 -107 -105 -152
-143 -170 -143 -19 0 -21 -3 -11 -9 11 -7 1 -21 -45 -64 -221 -204 -388 -297
-534 -297 -90 0 -150 51 -150 128 0 58 39 123 129 212 157 155 385 264 495
236 18 -4 28 -16 35 -39 7 -25 9 -27 10 -9 2 42 -32 62 -105 62 -88 0 -142
-14 -252 -67 -73 -34 -111 -61 -171 -119 l-79 -74 -16 34 c-39 81 -5 201 77
272 138 118 366 163 687 133z"/>
<path d="M1614 2779 c-18 -40 -81 -110 -160 -176 -22 -18 -33 -33 -27 -33 7 0
30 16 52 35 21 19 56 42 77 50 22 9 29 13 17 11 -13 -2 -23 -2 -23 0 0 2 16
25 36 51 35 46 58 92 51 99 -2 3 -12 -14 -23 -37z"/>
<path d="M1618 2673 c12 -2 32 -2 45 0 12 2 2 4 -23 4 -25 0 -35 -2 -22 -4z"/>
<path d="M2251 2657 c47 -31 71 -81 67 -139 -2 -26 1 -43 6 -38 14 14 10 103
-7 136 -9 17 -32 39 -51 48 -48 23 -55 20 -15 -7z"/>
<path d="M2375 2545 c0 -113 2 -135 15 -135 13 0 15 20 12 135 -2 96 -7 135
-15 135 -9 0 -12 -37 -12 -135z"/>
<path d="M2585 2545 c0 -113 2 -135 15 -135 13 0 15 22 15 135 0 113 -2 135
-15 135 -13 0 -15 -22 -15 -135z"/>
<path d="M2928 2583 c3 -113 13 -146 48 -162 36 -16 44 -13 12 5 -35 19 -43
48 -43 162 0 55 -4 92 -10 92 -6 0 -9 -37 -7 -97z"/>
<path d="M3116 2665 c4 -8 8 -15 10 -15 2 0 4 7 4 15 0 8 -4 15 -10 15 -5 0
-7 -7 -4 -15z"/>
<path d="M3165 2545 c0 -113 2 -135 15 -135 13 0 15 22 15 135 0 113 -2 135
-15 135 -13 0 -15 -22 -15 -135z"/>
<path d="M3330 2664 c0 -14 3 -15 18 -3 9 7 19 15 21 16 2 2 -5 3 -17 3 -14 0
-22 -6 -22 -16z"/>
<path d="M3418 2545 c-3 -115 -1 -135 12 -135 13 0 15 20 12 135 -2 74 -7 135
-12 135 -5 0 -10 -61 -12 -135z"/>
<path d="M3491 2677 c2 -1 12 -9 22 -16 14 -12 17 -11 17 3 0 10 -8 16 -22 16
-12 0 -19 -1 -17 -3z"/>
<path d="M3551 2568 c5 -105 7 -112 33 -135 39 -33 50 -28 15 7 l-30 30 3 105
c2 88 1 105 -12 105 -13 0 -14 -16 -9 -112z"/>
<path d="M3735 2670 c4 -6 11 -8 16 -5 14 9 11 15 -7 15 -8 0 -12 -5 -9 -10z"/>
<path d="M3795 2545 c0 -113 2 -135 15 -135 13 0 15 20 12 135 -2 96 -7 135
-15 135 -9 0 -12 -37 -12 -135z"/>
<path d="M4090 2672 c0 -7 20 -62 45 -122 25 -60 45 -116 45 -125 0 -8 9 -15
20 -15 19 0 19 2 5 23 -8 13 -32 66 -54 119 -42 105 -60 140 -61 120z"/>
<path d="M2495 2653 c12 -12 15 -27 11 -52 -5 -33 -4 -35 9 -17 21 28 19 63
-4 76 -29 15 -35 12 -16 -7z"/>
<path d="M2865 2650 c20 -23 29 -21 19 4 -3 9 -13 16 -22 16 -13 0 -12 -3 3
-20z"/>
<path d="M3915 2653 c12 -12 15 -27 11 -52 -5 -33 -4 -35 9 -17 21 28 19 63
-4 76 -29 15 -35 12 -16 -7z"/>
<path d="M2664 2595 c-7 -19 -14 -44 -14 -55 0 -33 26 -86 51 -104 36 -25 40
-19 8 15 -34 36 -46 89 -32 141 13 47 7 49 -13 3z"/>
<path d="M2076 2588 c-11 -42 -6 -83 14 -115 18 -31 65 -63 92 -63 7 0 -3 8
-22 18 -43 24 -72 78 -72 137 0 50 -3 56 -12 23z"/>
<path d="M2508 2479 c16 -35 33 -64 39 -66 12 -4 -42 113 -56 122 -6 3 2 -22
17 -56z"/>
<path d="M3928 2479 c24 -54 33 -65 56 -67 18 -2 26 0 22 7 -4 5 -12 8 -19 5
-8 -3 -22 15 -37 46 -35 75 -55 83 -22 9z"/>
<path d="M2872 2440 c-8 -13 -8 -20 -2 -20 6 0 13 7 17 15 9 24 -1 27 -15 5z"/>
<path d="M2036 2425 c-16 -12 -17 -15 -4 -15 9 0 18 7 22 15 7 18 6 18 -18 0z"/>
<path d="M3310 2425 c-10 -12 -10 -15 4 -15 9 0 16 7 16 15 0 8 -2 15 -4 15
-2 0 -9 -7 -16 -15z"/>
<path d="M2342 2143 c-14 -26 -16 -45 -2 -23 7 12 10 11 16 -5 23 -62 54 -125
63 -125 12 0 3 26 -38 115 -26 56 -28 59 -39 38z"/>
<path d="M2460 2075 l0 -85 53 1 c51 2 51 2 12 8 l-40 6 -3 78 c-4 105 -22 99
-22 -8z"/>
<path d="M2600 2154 c0 -20 74 -154 80 -145 8 14 -55 151 -70 151 -5 0 -10 -3
-10 -6z"/>
<path d="M2736 2144 c-3 -8 -2 -12 4 -9 6 4 10 -22 10 -69 0 -44 4 -76 10 -76
6 0 10 35 10 85 0 66 -3 85 -14 85 -8 0 -17 -7 -20 -16z"/>
<path d="M2830 2075 l0 -85 48 2 c43 1 44 2 10 5 l-38 4 0 80 c0 46 -4 79 -10
79 -6 0 -10 -35 -10 -85z"/>
<path d="M2990 2075 c0 -47 4 -85 9 -85 5 0 11 38 13 85 2 63 0 85 -9 85 -10
0 -13 -24 -13 -85z"/>
<path d="M3048 2153 c7 -3 16 -2 19 1 4 3 -2 6 -13 5 -11 0 -14 -3 -6 -6z"/>
<path d="M2706 2085 c-9 -26 -7 -32 5 -12 6 10 9 21 6 23 -2 3 -7 -2 -11 -11z"/>
<path d="M2593 2040 c0 -30 2 -43 4 -27 2 15 2 39 0 55 -2 15 -4 2 -4 -28z"/>
<path d="M2300 2048 c0 -4 14 -8 30 -8 17 0 30 2 30 4 0 2 -13 6 -30 8 -16 3
-30 1 -30 -4z"/>
<path d="M1725 1777 c-6 -14 -10 -15 -21 -6 -17 14 -19 -2 -1 -20 10 -11 8
-12 -12 -6 -16 5 -21 4 -17 -4 4 -6 15 -11 24 -11 13 0 13 -2 -4 -15 -10 -8
-14 -15 -8 -15 5 0 16 6 23 13 11 10 13 9 8 -5 -3 -10 -2 -20 3 -23 6 -4 10 4
10 16 0 22 0 22 15 3 8 -10 15 -14 15 -8 0 5 -6 16 -12 23 -11 11 -8 12 12 7
23 -6 23 -6 8 7 -14 11 -15 16 -5 27 10 10 9 12 -5 7 -11 -4 -18 0 -21 11 -4
16 -5 16 -12 -1z m15 -31 c0 -17 -14 -29 -23 -20 -8 8 3 34 14 34 5 0 9 -6 9
-14z"/>
<path d="M2223 1745 c0 -27 2 -38 4 -22 2 15 2 37 0 50 -2 12 -4 0 -4 -28z"/>
<path d="M2383 1745 c0 -27 2 -38 4 -22 2 15 2 37 0 50 -2 12 -4 0 -4 -28z"/>
<path d="M2542 1778 c-7 -7 -11 -23 -11 -37 l2 -26 4 25 c3 14 10 31 15 38 13
15 6 16 -10 0z"/>
<path d="M2595 1750 c0 -21 3 -36 8 -33 4 2 7 17 7 33 0 16 -3 31 -7 33 -5 3
-8 -12 -8 -33z"/>
<path d="M2733 1745 c0 -27 2 -38 4 -22 2 15 2 37 0 50 -2 12 -4 0 -4 -28z"/>
<path d="M2900 1745 c0 -25 3 -45 8 -45 4 0 7 20 7 45 0 25 -3 45 -7 45 -5 0
-8 -20 -8 -45z"/>
<path d="M3611 1773 c-1 -12 3 -24 9 -28 11 -7 2 -35 -11 -35 -5 0 -9 6 -9 14
0 14 -29 31 -38 21 -3 -2 3 -7 12 -11 14 -5 14 -9 4 -22 -11 -13 -10 -15 5 -9
12 4 17 1 17 -11 1 -16 2 -15 11 1 9 15 13 16 26 5 14 -12 15 -11 5 9 -10 19
-9 20 10 15 14 -3 19 -1 14 6 -4 7 -15 12 -24 12 -13 0 -13 2 4 15 10 8 14 15
7 15 -6 0 -15 -6 -19 -12 -6 -9 -10 -5 -15 12 -6 23 -7 23 -8 3z"/>
<path d="M2771 1764 c0 -11 3 -14 6 -6 3 7 2 16 -1 19 -3 4 -6 -2 -5 -13z"/>
<path d="M3070 1772 c0 -5 14 -18 30 -30 17 -13 30 -21 30 -19 0 2 -13 16 -30
30 -16 15 -30 23 -30 19z"/>
<path d="M3580 1771 c0 -5 5 -13 10 -16 6 -3 10 -2 10 4 0 5 -4 13 -10 16 -5
3 -10 2 -10 -4z"/>
<path d="M2760 1731 c5 -11 15 -23 21 -27 6 -3 3 5 -6 20 -20 30 -30 35 -15 7z"/>
</g>
</svg>
